# xmcd CD database file
#
# Track frame offsets:
#	150
#	14664
#	27725
#	40995
#	54756
#	68436
#	83074
#	99875
#	112969
#	125862
#	138769
#	152488
#	165735
#	179421
#	192808
#	205978
#	219267
#	233333
#	247567
#	260198
#
# Disc length: 3649 seconds
#
# Revision: 2
# Processed by: cddbd v1.5.2PL0 Copyright (c) Steve Scherf et al.
# Submitted via: CDex 1.51
#
DISCID=020e3f14
DTITLE=Gene Ammons - Red Top
DYEAR=2001
DGENRE=Jazz
TTITLE0=El Sino (G. Ammons)  [1947]
TTITLE1=Ineta (G. Ammons)  [1947]
TTITLE2=Wild Leo (G. Ammons)  [1947]
TTITLE3=Leaping Leo (L. Parker)  [1947]
TTITLE4=You Go To My Head (H. Gillespie)  [1950]
TTITLE5=Jug Head Rumble (A. James)  [1950]
TTITLE6=Goodbye (G. Jenkins)  [1950]
TTITLE7=Don't Do Me Wrong (J. Mundy)  [1950]
TTITLE8=My Foolish Heart (N. Washington - V.Young)  [1950]
TTITLE9=Baby, Won't You Please Say Yes (J. Button)  [1951]
TTITLE10=Prelude To A Kiss (Ellington - Gordon - Mills)  [1950]
TTITLE11=You're Not The Kind (W. Hudson - I. Mills)  [1951]
TTITLE12=Just Chips (G. Ammons)  [1952]
TTITLE13=Street Of Dreams (G. Ammons)  [1952]
TTITLE14=Good Time Blues (J. Mance)  [1952]
TTITLE15=Travellln' Light (J. Houston)  [1953]
TTITLE16=Red Top (G. Ammons)  [1953]
TTITLE17=Fuzzy (G. Ammons)  [1953]
TTITLE18=Stairway To The Stars (L. Simpkins)  [1953]
TTITLE19=Jim Dawgs (Easton)  [1953]
EXTD=YEAR: 2001
EXTT0=
EXTT1=
EXTT2=
EXTT3=
EXTT4=
EXTT5=
EXTT6=
EXTT7=
EXTT8=
EXTT9=
EXTT10=
EXTT11=
EXTT12=
EXTT13=
EXTT14=
EXTT15=
EXTT16=
EXTT17=
EXTT18=
EXTT19=
PLAYORDER=
